<svg version="1.1" xmlns="http://www.w3.org/2000/svg" xmlns:xlink="http://www.w3.org/1999/xlink" width="63.14115" height="63.73976" viewBox="0,0,63.14115,63.73976"><defs><linearGradient x1="241.05213" y1="157.47625" x2="241.05213" y2="209.88142" gradientUnits="userSpaceOnUse" id="color-1"><stop offset="0" stop-color="#ff3b3b"/><stop offset="1" stop-color="#9b2424"/></linearGradient><linearGradient x1="236.31468" y1="149.24101" x2="236.31468" y2="171.09576" gradientUnits="userSpaceOnUse" id="color-2"><stop offset="0" stop-color="#dca464"/><stop offset="1" stop-color="#562714"/></linearGradient></defs><g transform="translate(-208.42775,-148.26922)"><g stroke-miterlimit="10"><path d="M209.67775,185.48283c0,-9.98211 1.80584,-30.16822 9.89215,-31.18807c5.38235,-0.67603 13.71079,10.01123 18.34812,10.01123c4.90332,0 15.45729,-14.33007 19.4238,-12.12307c8.12627,4.52153 12.82022,21.77237 12.97708,31.49591c0.31421,19.47743 -21.61295,27.16651 -29.26677,27.07942c-25.45964,-0.28969 -31.37438,-21.53658 -31.37438,-25.27542z" fill="url(#color-1)" stroke="#000000" stroke-width="2.5"/><path d="M251.24805,171.1344c-2.94155,0.25051 -4.98295,-0.11654 -7.8637,0.14157c-2.7073,0.24257 -6.25379,1.10494 -9.0166,1.49805c-3.80757,0.54215 -7.49213,0.71402 -10.44527,-1.84168c-0.64164,-0.5601 0.11763,-1.59703 0.907,-1.17874c1.94348,1.02246 3.87208,1.39278 5.79584,1.40511c0.12924,0.08979 6.81691,-0.98571 9.84708,-2.00137c3.66334,-1.07241 7.3372,-1.98243 11.07851,-0.99907c1.78863,0.4704 1.55209,2.81495 -0.30286,2.97612z" fill="#000000" stroke="#000000" stroke-width="0"/><path d="M233.47094,149.51922c0.31669,0.36819 3.11071,4.03467 5.17052,8.14739c2.81568,5.62194 5.05278,12.07773 5.00097,12.08252c-0.84567,0.07809 -7.02792,1.21806 -8.41141,1.3458c-0.93273,0.08613 1.33966,-6.47741 -1.35171,-10.7345c-2.52855,-3.99955 -5.30394,-5.9017 -4.84259,-7.33361c0.55545,-1.72395 3.39898,-4.71118 4.43421,-3.5076z" fill="url(#color-2)" stroke="#000000" stroke-width="2.5"/><path d="M248.92809,182.56568c0,3.85106 -2.36805,6.97298 -5.28921,6.97298c-2.92115,0 -5.28921,-3.1219 -5.28921,-6.97298c0,-1.67399 -0.17276,-4.88398 0.81917,-6.23925c1.29005,-1.76258 4.0755,-1.55409 5.72688,-1.55409c1.54762,0 2.31156,0.05592 3.2788,1.45265c0.85843,1.23961 0.75357,4.5299 0.75357,6.34068z" fill="#000000" stroke="none" stroke-width="0"/><path d="M260.28304,186.98401c-2.66084,0 -4.50368,-2.45922 -4.50368,-5.9988c0,-2.33176 -0.94917,-6.01335 0.45038,-7.13471c0.38457,-0.30812 3.66898,-0.78703 5.68497,0.80397c1.78445,1.40827 2.34832,4.77131 2.34832,6.43328c0,3.53958 -1.31915,5.89626 -3.98,5.89626z" fill="#000000" stroke="none" stroke-width="0"/><path d="M216.11624,185.75149c0,-3.70644 2.49949,-6.51798 4.03236,-6.51798c1.53287,0 -0.26185,3.19779 -0.26185,6.90423c0,3.70643 2.3184,5.45578 0.78553,5.45578c-1.53288,0 -4.55605,-2.1356 -4.55605,-5.84204z" fill="#ffffff" stroke="none" stroke-width="0"/></g></g></svg>