<svg version="1.1" xmlns="http://www.w3.org/2000/svg" xmlns:xlink="http://www.w3.org/1999/xlink" width="28.680155" height="11.88616" viewBox="0,0,57.36031,23.77232">
  <g transform="translate(-210.81985,-165.57805)">
    <g stroke-miterlimit="10">
      <path d="M211.31985,170.80993c0,-0.7999 0.64845,-1.44835 1.44835,-1.44835h2.89669c0.72418,0 1.08626,0.36209 1.44834,0.72418l1.44834,1.44834c0.36209,0.36209 0.72417,0.72418 1.44835,0.72418h4.34503c0.72418,0 1.08626,-0.36209 1.44834,-0.72418l1.44835,-1.44834c0.36209,-0.36209 0.72417,-0.72418 1.44834,-0.72418h37.53181c0.7999,0 1.44835,0.64845 1.44835,1.44835v14.48345c0,0.7999 -0.64845,1.44834 -1.44835,1.44834h-37.53181c-0.72418,0 -1.08626,0.36209 -1.44834,0.72418c0,0 -2.17252,1.38447 -2.89669,1.38447h-4.34503c-0.72418,0 -1.08626,-0.36209 -1.44835,-0.72418c0,0 -2.17251,-1.38447 -2.89669,-1.38447h-2.89669c-0.7999,0 -1.44835,-0.64844 -1.44835,-1.44834z" fill="#0f1e33" stroke="#4c97ff"/>
      <path d="M211.31985,167.5264c0,-0.7999 0.64845,-1.44835 1.44835,-1.44835h2.89669c0.72418,0 1.08626,0.36209 1.44834,0.72418l1.44834,1.44835c0.36209,0.36209 0.72417,0.72418 1.44835,0.72418h4.34503c0.72418,0 1.08626,-0.36209 1.44834,-0.72418l1.44835,-1.44835c0.36209,-0.36209 0.72417,-0.72418 1.44834,-0.72418h37.53181c0.7999,0 1.44835,0.64845 1.44835,1.44835v14.48345c0,0.7999 -0.64845,1.44834 -1.44835,1.44834h-37.53181c-0.72418,0 -1.08626,0.36209 -1.44834,0.72418l-1.44835,1.44835c-0.36209,0.36209 -0.72417,0.72418 -1.44834,0.72418h-4.34503c-0.72418,0 -1.08626,-0.36209 -1.44835,-0.72418l-1.44834,-1.44835c-0.36209,-0.36209 -0.72417,-0.72418 -1.44834,-0.72418h-2.89669c-0.7999,0 -1.44835,-0.64844 -1.44835,-1.44834z" fill="#234779" stroke="#4c97ff"/>
      <path d="" fill="#4c97ff" stroke="none" visibility="hidden"/>
    </g>
  </g>
</svg>
