<?xml version="1.0" encoding="UTF-8" standalone="no"?>
<!-- Created with Inkscape (http://www.inkscape.org/) -->

<svg
   width="480mm"
   height="360mm"
   viewBox="0 0 480 360"
   version="1.1"
   id="svg1"
   xmlns:xlink="http://www.w3.org/1999/xlink"
   xmlns="http://www.w3.org/2000/svg"
   xmlns:svg="http://www.w3.org/2000/svg">
  <defs
     id="defs1">
    <linearGradient
       id="linearGradient2">
      <stop
         style="stop-color:#4fa55c;stop-opacity:1;"
         offset="0"
         id="stop2" />
      <stop
         style="stop-color:#295d22;stop-opacity:1;"
         offset="1"
         id="stop3" />
    </linearGradient>
    <linearGradient
       xlink:href="#linearGradient2"
       id="linearGradient3"
       x1="0"
       y1="180"
       x2="480"
       y2="180"
       gradientUnits="userSpaceOnUse" />
  </defs>
  <g
     id="layer1">
    <rect
       style="fill:url(#linearGradient3);fill-opacity:1;stroke:#000000;stroke-width:0;stroke-linejoin:round;paint-order:fill markers stroke"
       id="rect1"
       width="480"
       height="360"
       x="0"
       y="0" />
    <path
       d="m 110.0789,193.71602 -2.2352,-8.5344 h -9.702804 l -2.1844,8.5344 h -7.7216 l 9.6012,-35.4584 H 108.6057 l 9.6012,35.4584 z m -6.858,-28.0924 h -0.4064 l -3.454404,13.4112 h 7.315204 z m 16.76401,28.0924 v -26.2128 h 6.0452 v 3.8608 h 0.3556 q 0.6096,-1.8288 1.7272,-3.1496 1.1684,-1.3208 3.2512,-1.3208 3.81,0 4.6736,4.4704 h 0.3048 q 0.3048,-0.9144 0.762,-1.7272 0.4572,-0.8128 1.1176,-1.4224 0.6604,-0.6096 1.5748,-0.9652 0.9144,-0.3556 2.1336,-0.3556 5.4864,0 5.4864,8.0772 v 18.7452 h -6.0452 v -17.9832 q 0,-1.8288 -0.6604,-2.54 -0.6096,-0.762 -1.6256,-0.762 -0.9652,0 -1.6764,0.6604 -0.6604,0.6096 -0.6604,1.9304 v 18.6944 h -6.096 v -17.9832 q 0,-1.8288 -0.6096,-2.54 -0.5588,-0.762 -1.5748,-0.762 -1.016,0 -1.7272,0.6604 -0.7112,0.6096 -0.7112,1.9304 v 18.6944 z m 31.95322,-26.2128 h 7.5184 v 4.7752 h 0.3556 q 0.9652,-2.3368 2.794,-3.8608 1.8288,-1.524 4.9784,-1.524 2.1844,0 3.9624,0.8128 1.8288,0.8128 3.0988,2.4892 1.3208,1.6764 2.032,4.2672 0.762,2.5908 0.762,6.1468 0,3.556 -0.762,6.1468 -0.7112,2.5908 -2.032,4.2672 -1.27,1.6764 -3.0988,2.4892 -1.778,0.8128 -3.9624,0.8128 -3.1496,0 -4.9784,-1.4732 -1.8288,-1.524 -2.794,-3.9116 h -0.3556 v 14.9352 h -7.5184 z m 12.3952,20.9804 q 2.54,0 3.9116,-1.524 1.3716,-1.5748 1.3716,-4.318 v -4.064 q 0,-2.7432 -1.3716,-4.2672 -1.3716,-1.5748 -3.9116,-1.5748 -1.9812,0 -3.4544,0.9652 -1.4224,0.9652 -1.4224,3.048 v 7.7216 q 0,2.0828 1.4224,3.048 1.4732,0.9652 3.4544,0.9652 z m 36.98242,-10.5664 0.4064,-9.906 h -0.4572 l -6.604,18.2372 -6.604,-18.2372 h -0.4572 l 0.4064,9.906 v 15.7988 h -6.604 v -35.4584 h 8.9916 l 4.3688,11.938 h 0.4064 l 4.3688,-11.938 h 8.382 v 35.4584 h -6.604 z m 23.82522,16.4084 q -3.048,0 -5.4864,-0.9144 -2.4384,-0.9652 -4.1656,-2.7432 -1.6764,-1.778 -2.5908,-4.318 -0.9144,-2.54 -0.9144,-5.7404 0,-3.2004 0.9144,-5.7404 0.9144,-2.54 2.5908,-4.318 1.7272,-1.778 4.1656,-2.6924 2.4384,-0.9652 5.4864,-0.9652 3.048,0 5.4864,0.9652 2.4384,0.9144 4.1148,2.6924 1.7272,1.778 2.6416,4.318 0.9144,2.54 0.9144,5.7404 0,3.2004 -0.9144,5.7404 -0.9144,2.54 -2.6416,4.318 -1.6764,1.778 -4.1148,2.7432 -2.4384,0.9144 -5.4864,0.9144 z m 0,-5.588 q 2.54,0 3.9624,-1.5748 1.4224,-1.5748 1.4224,-4.4704 v -4.1656 q 0,-2.8956 -1.4224,-4.4704 -1.4224,-1.5748 -3.9624,-1.5748 -2.54,0 -3.9624,1.5748 -1.4224,1.5748 -1.4224,4.4704 v 4.1656 q 0,2.8956 1.4224,4.4704 1.4224,1.5748 3.9624,1.5748 z m 35.20441,0.2032 h -0.3556 q -1.016,2.3876 -2.8448,3.9116 -1.778,1.4732 -4.9276,1.4732 -2.1844,0 -4.0132,-0.8128 -1.778,-0.8128 -3.0988,-2.4892 -1.27,-1.6764 -2.032,-4.2672 -0.7112,-2.5908 -0.7112,-6.1468 0,-3.556 0.7112,-6.1468 0.762,-2.5908 2.032,-4.2672 1.3208,-1.6764 3.0988,-2.4892 1.8288,-0.8128 4.0132,-0.8128 1.5748,0 2.794,0.4064 1.2192,0.4064 2.1336,1.1176 0.9652,0.7112 1.6256,1.7272 0.7112,0.9652 1.2192,2.1336 h 0.3556 v -16.1544 h 7.5184 v 37.592 h -7.5184 z m -4.8768,-0.4572 q 1.9812,0 3.4036,-0.9652 1.4732,-0.9652 1.4732,-3.048 v -7.7216 q 0,-2.0828 -1.4732,-3.048 -1.4224,-0.9652 -3.4036,-0.9652 -2.54,0 -3.9116,1.5748 -1.3716,1.524 -1.3716,4.2672 v 4.064 q 0,2.7432 1.3716,4.318 1.3716,1.524 3.9116,1.524 z m 50.64765,5.2324 v -6.1468 h 9.5504 v -23.7744 h -0.4572 l -7.2136,9.4488 -4.8768,-3.81 8.4836,-11.176 h 11.684 v 29.3116 h 7.5184 v 6.1468 z m 40.94481,0.6096 q -7.112,0 -10.5156,-4.826 -3.3528,-4.826 -3.3528,-13.5128 0,-8.6868 3.3528,-13.5128 3.4036,-4.826 10.5156,-4.826 7.112,0 10.4648,4.826 3.4036,4.826 3.4036,13.5128 0,8.6868 -3.4036,13.5128 -3.3528,4.826 -10.4648,4.826 z m 0,-5.9944 q 3.4036,0 4.7244,-2.3876 1.3716,-2.3876 1.3716,-6.6548 v -6.604 q 0,-4.2672 -1.3716,-6.6548 -1.3208,-2.3876 -4.7244,-2.3876 -3.4036,0 -4.7752,2.3876 -1.3208,2.3876 -1.3208,6.6548 v 6.604 q 0,4.2672 1.3208,6.6548 1.3716,2.3876 4.7752,2.3876 z m 0,-9.3472 q -1.778,0 -2.4892,-0.7112 -0.6604,-0.7112 -0.6604,-1.7272 v -1.1176 q 0,-1.016 0.6604,-1.7272 0.7112,-0.7112 2.4892,-0.7112 1.778,0 2.4384,0.7112 0.7112,0.7112 0.7112,1.7272 v 1.1176 q 0,1.016 -0.7112,1.7272 -0.6604,0.7112 -2.4384,0.7112 z m 20.01522,14.732 v -6.1468 h 9.5504 v -23.7744 h -0.4572 l -7.2136,9.4488 -4.8768,-3.81 8.4836,-11.176 h 11.684 v 29.3116 h 7.5184 v 6.1468 z"
       id="text3"
       style="font-weight:bold;font-size:50.8px;font-family:'IBM Plex Mono';-inkscape-font-specification:'IBM Plex Mono Bold';fill:#ffffff;stroke:#000000;stroke-width:0;stroke-linejoin:round;paint-order:fill markers stroke"
       aria-label="AmpMod 101" />
  </g>
</svg>
