<?xml version="1.0" encoding="UTF-8" standalone="no"?>
<!-- Created with Inkscape (http://www.inkscape.org/) -->

<svg
   width="45.305676mm"
   height="8.0949802mm"
   viewBox="0 0 45.305676 8.0949801"
   version="1.1"
   id="svg1"
   inkscape:version="1.4.2 (ebf0e940d0, 2025-05-08)"
   sodipodi:docname="tryampmodnow.svg"
   xmlns:inkscape="http://www.inkscape.org/namespaces/inkscape"
   xmlns:sodipodi="http://sodipodi.sourceforge.net/DTD/sodipodi-0.dtd"
   xmlns="http://www.w3.org/2000/svg"
   xmlns:svg="http://www.w3.org/2000/svg">
  <sodipodi:namedview
     id="namedview1"
     pagecolor="#ffffff"
     bordercolor="#000000"
     borderopacity="0.25"
     inkscape:showpageshadow="2"
     inkscape:pageopacity="0.0"
     inkscape:pagecheckerboard="0"
     inkscape:deskcolor="#d1d1d1"
     inkscape:document-units="mm"
     inkscape:zoom="2.6360144"
     inkscape:cx="121.96443"
     inkscape:cy="21.813234"
     inkscape:window-width="1920"
     inkscape:window-height="1128"
     inkscape:window-x="0"
     inkscape:window-y="0"
     inkscape:window-maximized="1"
     inkscape:current-layer="layer1" />
  <defs
     id="defs1" />
  <g
     inkscape:label="Layer 1"
     inkscape:groupmode="layer"
     id="layer1"
     transform="translate(-23.541611,-133.94544)">
    <text
       xml:space="preserve"
       style="font-style:normal;font-variant:normal;font-weight:bold;font-stretch:normal;font-size:0.882936px;font-family:Inter;-inkscape-font-specification:'Inter Bold';text-align:start;writing-mode:lr-tb;direction:ltr;text-anchor:start;fill:#1a1a1a;stroke:#ffffff;stroke-width:1.22913;stroke-linejoin:round;paint-order:fill markers stroke"
       x="38.818329"
       y="132.48813"
       id="text1"><tspan
         sodipodi:role="line"
         id="tspan1"
         style="fill:#1a1a1a;stroke-width:1.22913"
         x="38.818329"
         y="132.48813" /></text>
    <path
       id="rect3"
       style="fill:#59c059;stroke:#000000;stroke-width:0;stroke-linejoin:round;paint-order:fill markers stroke"
       d="m 25.794703,133.94544 h 40.79949 c 1.248214,0 2.253093,0.80521 2.253093,1.80541 v 4.48416 c 0,1.00019 -1.004879,1.80541 -2.253093,1.80541 h -40.79949 c -1.248213,0 -2.253092,-0.80522 -2.253092,-1.80541 v -4.48416 c 0,-1.0002 1.00488,-1.80541 2.253092,-1.80541 z" />
    <path
       d="m 26.854189,136.49105 v -0.53898 h 2.592619 v 0.53898 h -0.969303 v 2.63523 h -0.651883 v -2.63523 z m 2.777958,2.63523 v -2.38173 h 0.617798 v 0.41542 h 0.02556 c 0.04402,-0.14629 0.117169,-0.25707 0.219425,-0.33233 0.103676,-0.0767 0.222265,-0.11505 0.355766,-0.11505 0.07243,0 0.141312,0.007 0.206643,0.0213 v 0.57094 c -0.0284,-0.009 -0.0703,-0.0156 -0.12569,-0.0213 -0.05397,-0.007 -0.104387,-0.0106 -0.151254,-0.0106 -0.147704,0 -0.269843,0.0462 -0.366418,0.13847 -0.09515,0.0923 -0.142732,0.21232 -0.142732,0.36003 v 1.3549 z m 1.827829,0.8436 0.146994,-0.48145 0.07882,0.0192 c 0.12924,0.0356 0.235047,0.0327 0.31742,-0.009 0.08237,-0.0398 0.13066,-0.1193 0.144863,-0.2386 l 0.01704,-0.12782 -0.894741,-2.38811 h 0.679578 l 0.400503,1.2356 c 0.03266,0.10368 0.06036,0.20735 0.08308,0.31103 0.02272,0.10226 0.04545,0.20594 0.06817,0.31103 0.02556,-0.10652 0.05184,-0.21091 0.07882,-0.31315 0.0284,-0.10369 0.05965,-0.20665 0.09373,-0.30891 l 0.417546,-1.23559 h 0.671057 l -1.011911,2.66292 c -0.07243,0.19173 -0.176818,0.3437 -0.31316,0.4559 -0.134921,0.11361 -0.32168,0.17043 -0.560278,0.17043 -0.08521,0 -0.164746,-0.006 -0.238598,-0.0192 -0.07385,-0.0114 -0.133501,-0.0263 -0.178948,-0.0447 z m 3.508664,-0.8436 1.084341,-3.17421 h 0.852136 l 1.112035,3.17421 h -0.722184 l -0.244989,-0.7371 h -1.126947 l -0.236469,0.7371 z m 1.116296,-1.24626 h 0.796746 l -0.09586,-0.28547 c -0.05113,-0.1619 -0.102256,-0.3373 -0.153385,-0.52618 -0.05113,-0.18889 -0.104386,-0.39128 -0.159774,-0.60715 -0.05255,0.21871 -0.102967,0.42252 -0.151255,0.6114 -0.04829,0.18889 -0.09658,0.36287 -0.144864,0.52193 z m 2.309285,1.24626 v -2.38173 h 0.592232 l 0.02556,0.46229 c 0.06391,-0.17327 0.157647,-0.29967 0.281205,-0.3792 0.123558,-0.0795 0.256349,-0.1193 0.398373,-0.1193 0.301087,0 0.5056,0.17824 0.613537,0.53472 0.06676,-0.18321 0.169715,-0.31813 0.308899,-0.40477 0.140602,-0.0866 0.292564,-0.12995 0.45589,-0.12995 0.218716,0 0.399795,0.071 0.543237,0.21303 0.144863,0.14061 0.217294,0.34015 0.217294,0.59863 v 1.60628 h -0.639101 v -1.48485 c 0,-0.1335 -0.03693,-0.23292 -0.110776,-0.29825 -0.07243,-0.0667 -0.161907,-0.10012 -0.268423,-0.10012 -0.12072,0 -0.216585,0.0383 -0.287596,0.11503 -0.06959,0.0767 -0.104387,0.17753 -0.104387,0.30252 v 1.46567 h -0.617794 v -1.5019 c 0,-0.11645 -0.03479,-0.20877 -0.104387,-0.27694 -0.06817,-0.0696 -0.156933,-0.10438 -0.266289,-0.10438 -0.112199,0 -0.206645,0.0383 -0.283337,0.11503 -0.07669,0.0753 -0.115037,0.18463 -0.115037,0.32807 v 1.44012 z m 3.981601,0.89047 v -3.2722 h 0.628448 v 0.40051 h 0.02982 c 0.02841,-0.0625 0.06959,-0.12711 0.123555,-0.19387 0.05539,-0.0667 0.127826,-0.12285 0.217299,-0.16829 0.09089,-0.0454 0.203801,-0.0681 0.338722,-0.0681 0.176106,0 0.337302,0.0454 0.483587,0.13634 0.146284,0.0909 0.26274,0.22725 0.349376,0.40903 0.08805,0.18179 0.132079,0.40832 0.132079,0.67958 0,0.26416 -0.04261,0.48785 -0.127818,0.67105 -0.08522,0.18179 -0.200962,0.32027 -0.347247,0.41542 -0.146281,0.0937 -0.311028,0.1406 -0.494237,0.1406 -0.12924,0 -0.2386,-0.022 -0.328073,-0.066 -0.08947,-0.044 -0.162616,-0.098 -0.219425,-0.1619 -0.05539,-0.0653 -0.09799,-0.12995 -0.127818,-0.19387 H 43.0149 v 1.27182 z m 1.137598,-1.36341 c 0.166166,0 0.292564,-0.0667 0.379199,-0.20025 0.08805,-0.13351 0.132082,-0.30535 0.132082,-0.51555 0,-0.20877 -0.04331,-0.3792 -0.129954,-0.51128 -0.08663,-0.1335 -0.213741,-0.20025 -0.381327,-0.20025 -0.164749,0 -0.291859,0.0646 -0.381332,0.19387 -0.08806,0.12923 -0.132079,0.30179 -0.132079,0.51766 0,0.21588 0.04473,0.38915 0.134212,0.5198 0.08947,0.13066 0.215871,0.196 0.379199,0.196 z m 1.627578,0.47294 v -3.17421 h 0.996995 l 0.515545,1.45714 c 0.02133,0.0667 0.04545,0.1541 0.07243,0.26203 0.02697,0.10794 0.05468,0.2244 0.08308,0.34938 0.02982,0.12356 0.05681,0.24287 0.08096,0.3579 0.02413,-0.11361 0.05042,-0.2322 0.07882,-0.35577 0.02841,-0.12498 0.05609,-0.24144 0.08308,-0.34937 0.02697,-0.10794 0.05113,-0.19599 0.07243,-0.26417 l 0.507021,-1.45714 h 1.001255 v 3.17421 H 47.9786 v -1.49763 c 0,-0.0795 0.0014,-0.18109 0.0042,-0.30465 0.0043,-0.12356 0.0078,-0.25635 0.01065,-0.39837 0.0042,-0.14202 0.0071,-0.27978 0.0085,-0.41328 -0.03551,0.14202 -0.07314,0.28475 -0.112905,0.4282 -0.03835,0.14344 -0.07527,0.27551 -0.110777,0.39624 -0.03551,0.1193 -0.06605,0.21658 -0.09161,0.29185 l -0.526193,1.49763 h -0.547502 l -0.534717,-1.49763 c -0.02413,-0.0724 -0.05397,-0.16687 -0.08947,-0.28333 -0.03408,-0.11646 -0.071,-0.24427 -0.110777,-0.38346 -0.03977,-0.14061 -0.07811,-0.28192 -0.115038,-0.42394 0.0029,0.12782 0.0057,0.26132 0.0085,0.4005 0.0043,0.13776 0.0078,0.26772 0.01065,0.38985 0.0029,0.12072 0.0042,0.22085 0.0042,0.30039 v 1.49763 z m 5.114937,0.0468 c -0.238597,0 -0.44524,-0.0511 -0.619929,-0.15339 -0.174688,-0.10367 -0.309606,-0.24712 -0.404763,-0.43032 -0.09374,-0.18463 -0.140601,-0.39909 -0.140601,-0.64336 0,-0.2457 0.04686,-0.46087 0.140601,-0.6455 0.09516,-0.18463 0.230075,-0.32806 0.404763,-0.43033 0.174689,-0.10367 0.381332,-0.15552 0.619929,-0.15552 0.238597,0 0.44524,0.0518 0.619926,0.15552 0.174691,0.10226 0.3089,0.2457 0.402637,0.43033 0.09516,0.18463 0.142732,0.3998 0.142732,0.64549 0,0.24428 -0.04758,0.45874 -0.142732,0.64337 -0.09374,0.1832 -0.227946,0.32664 -0.402637,0.43032 -0.174686,0.10226 -0.381329,0.15339 -0.619926,0.15339 z m 0,-0.50276 c 0.170425,0 0.298958,-0.0689 0.385592,-0.20664 0.08663,-0.13776 0.129949,-0.31103 0.129949,-0.51981 0,-0.2102 -0.04331,-0.38346 -0.129949,-0.5198 -0.08663,-0.13776 -0.215167,-0.20664 -0.385592,-0.20664 -0.170428,0 -0.298953,0.0689 -0.38559,0.20664 -0.08521,0.13634 -0.127821,0.3096 -0.127821,0.5198 0,0.20878 0.04261,0.38204 0.127821,0.51981 0.08664,0.13776 0.215162,0.20664 0.38559,0.20664 z m 2.481841,0.49637 c -0.183208,0 -0.347952,-0.0469 -0.494236,-0.14061 -0.146284,-0.0952 -0.262741,-0.23362 -0.349377,-0.41541 -0.08521,-0.18321 -0.127819,-0.40689 -0.127819,-0.67106 0,-0.27125 0.04402,-0.49778 0.132082,-0.67957 0.08805,-0.1818 0.20522,-0.31813 0.351505,-0.40903 0.146281,-0.0909 0.307479,-0.13635 0.483585,-0.13635 0.134922,0 0.24712,0.0228 0.336593,0.0681 0.08947,0.0454 0.161198,0.10155 0.215165,0.16829 0.05539,0.0667 0.09728,0.13137 0.125688,0.19386 h 0.02131 v -1.19299 h 0.639101 v 3.17421 h -0.62845 v -0.38134 h -0.03195 c -0.02982,0.064 -0.07243,0.12853 -0.127822,0.19386 -0.05539,0.064 -0.127821,0.11788 -0.217294,0.16192 -0.08947,0.044 -0.19883,0.066 -0.32807,0.066 z m 0.195991,-0.51342 c 0.161905,0 0.287599,-0.0653 0.377072,-0.19599 0.08947,-0.13065 0.134211,-0.30392 0.134211,-0.5198 0,-0.21588 -0.04474,-0.38843 -0.134211,-0.51767 -0.08806,-0.12924 -0.213746,-0.19386 -0.377072,-0.19386 -0.167586,0 -0.294693,0.0667 -0.38133,0.20025 -0.08663,0.13208 -0.129949,0.30251 -0.129949,0.51128 0,0.21019 0.04331,0.38204 0.129949,0.51555 0.08806,0.13349 0.215168,0.20024 0.38133,0.20024 z m 3.355284,-0.90539 v 1.37833 h -0.639104 v -2.38172 h 0.602888 l 0.0085,0.49211 c 0.06676,-0.16616 0.161195,-0.29469 0.283336,-0.38559 0.122137,-0.0909 0.274812,-0.13635 0.458018,-0.13635 0.247123,0 0.445243,0.0795 0.594367,0.23861 0.149126,0.15906 0.223685,0.37848 0.223685,0.65826 v 1.51468 H 57.18163 v -1.4039 c 0,-0.14769 -0.03835,-0.26345 -0.115041,-0.34724 -0.07527,-0.0838 -0.180367,-0.12569 -0.315286,-0.12569 -0.136345,0 -0.247831,0.044 -0.334465,0.13208 -0.08521,0.0866 -0.127819,0.20878 -0.127819,0.36642 z m 3.142246,1.4252 c -0.238597,0 -0.445241,-0.0511 -0.619929,-0.15339 -0.174685,-0.10367 -0.309606,-0.24712 -0.404764,-0.43032 -0.09374,-0.18463 -0.140602,-0.39909 -0.140602,-0.64336 0,-0.2457 0.04686,-0.46087 0.140602,-0.6455 0.09516,-0.18463 0.230079,-0.32806 0.404764,-0.43033 0.174688,-0.10367 0.381332,-0.15552 0.619929,-0.15552 0.238596,0 0.44524,0.0518 0.619929,0.15552 0.174685,0.10226 0.308897,0.2457 0.402631,0.43033 0.09516,0.18463 0.142735,0.3998 0.142735,0.64549 0,0.24428 -0.04758,0.45874 -0.142735,0.64337 -0.09373,0.1832 -0.227946,0.32664 -0.402631,0.43032 -0.174689,0.10226 -0.381333,0.15339 -0.619929,0.15339 z m 0,-0.50276 c 0.170428,0 0.298956,-0.0689 0.385589,-0.20664 0.08663,-0.13776 0.129952,-0.31103 0.129952,-0.51981 0,-0.2102 -0.04331,-0.38346 -0.129952,-0.5198 -0.08663,-0.13776 -0.215161,-0.20664 -0.385589,-0.20664 -0.170428,0 -0.29896,0.0689 -0.38559,0.20664 -0.08522,0.13634 -0.127824,0.3096 -0.127824,0.5198 0,0.20878 0.04261,0.38204 0.127824,0.51981 0.08663,0.13776 0.215162,0.20664 0.38559,0.20664 z m 2.047255,0.45589 -0.703014,-2.38172 h 0.671056 l 0.206641,0.87983 c 0.02841,0.13208 0.05965,0.27411 0.09374,0.42607 0.03409,0.15197 0.06746,0.31671 0.100127,0.49424 0.03267,-0.17327 0.06675,-0.33588 0.102256,-0.48785 0.03693,-0.15338 0.07172,-0.29754 0.104388,-0.43246 l 0.217294,-0.87983 h 0.58797 l 0.213035,0.87983 c 0.02982,0.13492 0.06249,0.27837 0.098,0.43033 0.03692,0.15196 0.07243,0.316 0.106517,0.49211 0.02982,-0.17611 0.06107,-0.34015 0.09373,-0.49211 0.03266,-0.15196 0.06462,-0.29541 0.09587,-0.43033 l 0.206644,-0.87983 h 0.679576 l -0.707271,2.38172 h -0.649755 l -0.264161,-0.91818 c -0.02982,-0.10225 -0.05893,-0.21729 -0.08734,-0.34511 -0.02697,-0.12782 -0.05468,-0.25423 -0.08308,-0.37921 -0.02697,0.12498 -0.05468,0.2521 -0.08308,0.38134 -0.02841,0.12783 -0.05681,0.24215 -0.08522,0.34298 l -0.264161,0.91818 z m 3.378707,-1.00552 -0.04686,-2.16869 h 0.6881 l -0.04686,2.16869 z m 0.29825,1.04599 c -0.110778,0 -0.201675,-0.0333 -0.272685,-0.10012 -0.06959,-0.0667 -0.104387,-0.15339 -0.104387,-0.25991 0,-0.10793 0.03479,-0.19527 0.104387,-0.26202 0.071,-0.0667 0.161907,-0.10013 0.272685,-0.10013 0.110777,0 0.201669,0.0333 0.272682,0.10013 0.07101,0.0667 0.106518,0.15409 0.106518,0.26202 0,0.10652 -0.03551,0.19316 -0.106518,0.25991 -0.07101,0.0667 -0.161905,0.10012 -0.272682,0.10012 z"
       id="text3"
       style="font-weight:bold;font-size:14.9404px;font-family:Inter;-inkscape-font-specification:'Inter Bold';fill:#ffffff;stroke:#000000;stroke-width:0;stroke-linejoin:round;paint-order:fill markers stroke"
       aria-label="Try AmpMod now!"
       sodipodi:nodetypes="cccccccccccccccscccscscccccccccccccccccccscscccccccccccccscsccccccssccscsccscscsccscscscccccccccsscsccsscccccscscscsssccccscccscccccsccccccccccccccsccsccsccsccsccsssscscscscccsssssccccccccccsccssscscscsccccccssssccscscscsccsccsccsccsssscscscsccccsccccccccscccccccccccccccccscscsssss" />
  </g>
</svg>
